<svg width="39" height="39" viewBox="0 0 39 39" fill="none" xmlns="http://www.w3.org/2000/svg">
<path d="M19.5 6.09375C16.1345 6.09375 13.4062 8.82201 13.4062 12.1875C13.4062 15.553 16.1345 18.2812 19.5 18.2812C22.8655 18.2812 25.5938 15.553 25.5938 12.1875C25.5938 8.82201 22.8655 6.09375 19.5 6.09375Z" fill="white"/>
<path d="M13 21.5312C9.63451 21.5312 6.90625 24.2595 6.90625 27.625V29.556C6.90625 30.78 7.79331 31.8236 9.00132 32.0208C15.9544 33.156 23.0456 33.156 29.9987 32.0208C31.2067 31.8236 32.0938 30.78 32.0938 29.556V27.625C32.0938 24.2595 29.3655 21.5312 26 21.5312H25.4461C25.1463 21.5312 24.8484 21.5787 24.5634 21.6717L23.1569 22.131C20.7807 22.9069 18.2193 22.9069 15.8431 22.131L14.4366 21.6717C14.1516 21.5787 13.8537 21.5312 13.5539 21.5312H13Z" fill="white"/>
</svg>
