<svg width="39" height="39" viewBox="0 0 39 39" fill="none" xmlns="http://www.w3.org/2000/svg">
<path d="M14.2188 16.25C14.2188 13.3332 16.5832 10.9688 19.5 10.9688C22.4168 10.9688 24.7812 13.3332 24.7812 16.25C24.7812 19.1668 22.4168 21.5312 19.5 21.5312C16.5832 21.5312 14.2188 19.1668 14.2188 16.25Z" fill="white"/>
<path fill-rule="evenodd" clip-rule="evenodd" d="M6.13201 14.4258C6.69042 7.65123 12.3516 2.4375 19.1491 2.4375H19.851C26.6485 2.4375 32.3097 7.65123 32.8681 14.4258C33.1687 18.0732 32.0421 21.695 29.7254 24.5283L21.9366 34.0537C20.6773 35.5938 18.3228 35.5938 17.0635 34.0537L9.27473 24.5283C6.95803 21.695 5.83135 18.0732 6.13201 14.4258ZM19.5 8.53125C15.2371 8.53125 11.7812 11.9871 11.7812 16.25C11.7812 20.5129 15.2371 23.9688 19.5 23.9688C23.7629 23.9688 27.2188 20.5129 27.2188 16.25C27.2188 11.9871 23.7629 8.53125 19.5 8.53125Z" fill="white"/>
</svg>
