<svg width="38" height="40" viewBox="0 0 38 40" fill="none" xmlns="http://www.w3.org/2000/svg">
<path fill-rule="evenodd" clip-rule="evenodd" d="M5.14583 20C5.14583 11.9458 11.3485 5.41666 19 5.41666C26.6514 5.41666 32.8542 11.9458 32.8542 20C32.8542 28.0541 26.6514 34.5833 19 34.5833C11.3485 34.5833 5.14583 28.0541 5.14583 20ZM20.5833 13.3333C20.5833 14.2538 19.8744 15 19 15C18.1255 15 17.4167 14.2538 17.4167 13.3333C17.4167 12.4128 18.1255 11.6667 19 11.6667C19.8744 11.6667 20.5833 12.4128 20.5833 13.3333ZM19 17.9167C19.6558 17.9167 20.1875 18.4763 20.1875 19.1667V27.5C20.1875 28.1903 19.6558 28.75 19 28.75C18.3442 28.75 17.8125 28.1903 17.8125 27.5V19.1667C17.8125 18.4763 18.3442 17.9167 19 17.9167Z" fill="white"/>
</svg>
